<?xml version="1.0" encoding="UTF-8"?>
<!DOCTYPE svg PUBLIC "-//W3C//DTD SVG 1.1//EN" "http://www.w3.org/Graphics/SVG/1.1/DTD/svg11.dtd">
<!-- Creator: CorelDRAW -->
<svg xmlns="http://www.w3.org/2000/svg" xml:space="preserve" width="13.3966mm" height="13.3966mm" style="shape-rendering:geometricPrecision; text-rendering:geometricPrecision; image-rendering:optimizeQuality; fill-rule:evenodd; clip-rule:evenodd"
viewBox="0 0 0.747302 0.747302"
 xmlns:xlink="http://www.w3.org/1999/xlink">
 <defs>
  <style type="text/css">
   <![CDATA[
    .fil0 {fill:#333333}
    .fil1 {fill:yellow;fill-rule:nonzero}
   ]]>
  </style>
 </defs>
 <g id="Capa_x0020_1">
  <metadata id="CorelCorpID_0Corel-Layer"/>
  <rect class="fil0" width="0.747302" height="0.747302" rx="0.0761437" ry="0.0761437"/>
  <polygon class="fil1" points="0.477335,0.658763 0.425496,0.658763 0.373657,0.658763 0.321817,0.658763 0.269978,0.658763 0.218139,0.658763 0.218139,0.606924 0.1663,0.606924 0.1663,0.555085 0.1663,0.503246 0.1663,0.451407 0.1663,0.399568 0.1663,0.347729 0.1663,0.29589 0.1663,0.24405 0.1663,0.192206 0.1663,0.140367 0.218139,0.140367 0.218139,0.0885275 0.269978,0.0885275 0.321817,0.0885275 0.373657,0.0885275 0.425496,0.0885275 0.477335,0.0885275 0.529174,0.0885275 0.529174,0.140367 0.581013,0.140367 0.581013,0.192206 0.581013,0.24405 0.529174,0.24405 0.477335,0.24405 0.477335,0.192206 0.425496,0.192206 0.373657,0.192206 0.321817,0.192206 0.269978,0.192206 0.269978,0.24405 0.269978,0.29589 0.269978,0.347729 0.269978,0.399568 0.269978,0.451407 0.269978,0.503246 0.269978,0.555085 0.321817,0.555085 0.373657,0.555085 0.425496,0.555085 0.477335,0.555085 0.477335,0.503246 0.477335,0.451407 0.425496,0.451407 0.373657,0.451407 0.373657,0.399568 0.373657,0.347729 0.425496,0.347729 0.477335,0.347729 0.529174,0.347729 0.581013,0.347729 0.581013,0.399568 0.581013,0.451407 0.581013,0.503246 0.581013,0.555085 0.581013,0.606924 0.529174,0.606924 0.529174,0.658763 "/>
 </g>
</svg>
