<?xml version="1.0" encoding="UTF-8"?>
<!DOCTYPE svg PUBLIC "-//W3C//DTD SVG 1.1//EN" "http://www.w3.org/Graphics/SVG/1.1/DTD/svg11.dtd">
<!-- Creator: CorelDRAW -->
<svg xmlns="http://www.w3.org/2000/svg" xml:space="preserve" width="13.3966mm" height="13.3966mm" style="shape-rendering:geometricPrecision; text-rendering:geometricPrecision; image-rendering:optimizeQuality; fill-rule:evenodd; clip-rule:evenodd"
viewBox="0 0 0.857977 0.857977"
 xmlns:xlink="http://www.w3.org/1999/xlink">
 <defs>
  <style type="text/css">
   <![CDATA[
    .str0 {stroke:white;stroke-width:0.0160111}
    .str1 {stroke:#333333;stroke-width:0.0800555;stroke-linecap:round}
    .fil6 {fill:none}
    .fil5 {fill:#00CCFF}
    .fil4 {fill:lime}
    .fil0 {fill:#333333}
    .fil2 {fill:red}
    .fil3 {fill:yellow}
    .fil1 {fill:white}
   ]]>
  </style>
   <clipPath id="id0">
    <path d="M0.0874206 0l0.683136 0c0.0480845,0 0.0874206,0.0393361 0.0874206,0.0874206l0 0.683136c0,0.0480845 -0.0393361,0.0874206 -0.0874206,0.0874206l-0.683136 0c-0.0480845,0 -0.0874206,-0.0393361 -0.0874206,-0.0874206l0 -0.683136c0,-0.0480845 0.0393361,-0.0874206 0.0874206,-0.0874206z"/>
   </clipPath>
 </defs>
 <g id="Capa_x0020_1">
  <metadata id="CorelCorpID_0Corel-Layer"/>
  <path class="fil0" d="M0.0874206 0l0.683136 0c0.0480845,0 0.0874206,0.0393361 0.0874206,0.0874206l0 0.683136c0,0.0480845 -0.0393361,0.0874206 -0.0874206,0.0874206l-0.683136 0c-0.0480845,0 -0.0874206,-0.0393361 -0.0874206,-0.0874206l0 -0.683136c0,-0.0480845 0.0393361,-0.0874206 0.0874206,-0.0874206z"/>
  <g style="clip-path:url(#id0)">
   <g id="_698401576">
    <path id="_6962020321" class="fil1 str0" d="M0.429065 0.215439c0.107146,0 0.132815,-0.0519272 0.239962,-0.0519272 0.150408,0 0.285901,0.396095 0.177646,0.495889 -0.146995,0.135524 -0.167668,-0.165497 -0.417608,-0.165497 -0.24994,0 -0.270613,0.301021 -0.417608,0.165497 -0.108248,-0.099794 0.0261877,-0.495889 0.177646,-0.495889 0.107146,0 0.132815,0.0519272 0.239962,0.0519272z"/>
    <circle id="_696201600" class="fil2" cx="0.644259" cy="0.250504" r="0.0792886"/>
    <circle id="_698402656" class="fil3" transform="matrix(5.83218E-014 -2.20211 2.20211 5.83218E-014 0.530742 0.364021)" r="0.0360058"/>
    <circle id="_698402440" class="fil4" cx="0.644259" cy="0.477524" r="0.0792886"/>
    <circle id="_698402560" class="fil5" transform="matrix(5.83218E-014 -2.20211 2.20211 5.83218E-014 0.757762 0.364021)" r="0.0360058"/>
    <line id="_695684920" class="fil6 str1" x1="0.211532" y1="0.242722" x2="0.211532" y2= "0.487512" />
    <line id="_696934256" class="fil6 str1" x1="0.089137" y1="0.365117" x2="0.333927" y2= "0.365117" />
   </g>
  </g>
  <path class="fil6" d="M0.0874206 0l0.683136 0c0.0480845,0 0.0874206,0.0393361 0.0874206,0.0874206l0 0.683136c0,0.0480845 -0.0393361,0.0874206 -0.0874206,0.0874206l-0.683136 0c-0.0480845,0 -0.0874206,-0.0393361 -0.0874206,-0.0874206l0 -0.683136c0,-0.0480845 0.0393361,-0.0874206 0.0874206,-0.0874206z"/>
 </g>
</svg>
